<?xml version="1.0" encoding="utf-8"?>
<!-- Generator: Adobe Illustrator 27.5.0, SVG Export Plug-In . SVG Version: 6.00 Build 0)  -->
<svg version="1.1" xmlns="http://www.w3.org/2000/svg" xmlns:xlink="http://www.w3.org/1999/xlink" x="0px" y="0px"
	 viewBox="0 0 1122 1122" style="enable-background:new 0 0 1122 1122;" xml:space="preserve">
<g id="Bg">
	<g>
		<g>
			<rect style="fill:#FFFFFF;" width="1122" height="1122"/>
		</g>
	</g>
</g>
<g id="Object">
	<g>
		<path style="fill:#616E7D;" d="M560.718,235.775c-4.469,0-8.745,2.959-11.883,8.219l-49.829,83.4h123.35l-49.76-83.389
			C569.464,238.74,565.182,235.775,560.718,235.775z"/>
		<path style="fill:#616E7D;" d="M655.972,743.47c1.068-2.554,2.024-5.335,3.037-7.971l79.957,140.913
			c1.501,2.666,4.315,4.24,7.266,4.24l2.157-0.284c3.661-0.974,6.231-4.303,6.213-8.097l-0.376-189.539
			c0-1.676-0.508-3.298-1.446-4.685l-57.47-84.617c-1.483-2.191-3.907-3.462-6.458-3.604c0.902-13.963,1.501-28.106,1.501-42.486
			l0.018-16.262c0.039-24.88,0.058-48.398-0.524-70.949c0.357-4.021,0.506-7.507,0.506-10.887c0-6.996-0.639-14.198-1.988-22.009
			c-0.996-5.77-2.158-10.876-3.583-15.608c-6.421-21.186-18.319-40.509-34.46-55.973l-0.62-0.642l-22.429-22.655H494.067
			l-25.15,25.364l-0.993,1.092c-14.513,14.906-25.304,33.129-31.271,52.814c-0.732,2.387-1.313,4.838-1.897,7.289
			c-2.475,10.455-3.695,20.532-3.695,30.327c0,1.301-0.036,2.896-0.097,4.587c-0.127,4.236-0.263,8.982,0.079,13.042
			c-0.566,17.4-0.379,34.037-0.188,51.624c0.109,9.248,0.206,18.78,0.206,28.844c0,14.404,0.599,28.566,1.519,42.552
			c-2.348,0.297-4.506,1.513-5.895,3.537l-57.47,84.617c-0.939,1.386-1.425,3.008-1.444,4.685l-0.375,189.539
			c0,3.795,2.551,7.123,6.23,8.097l2.139,0.284c2.944,0,5.762-1.573,7.263-4.24l79.599-140.305c0.959,2.433,1.821,4.996,2.814,7.362
			c19.635,46.588,45.683,76.138,74.815,85.527l-19.258-87.815c-0.284-1.274-0.26-2.59,0.058-3.843l32.227-127.317
			c0.938-3.716,4.276-6.309,8.107-6.309h0.036c3.831,0.015,7.172,2.647,8.092,6.382l30.5,125.393c0.3,1.198,0.318,2.439,0.073,3.652
			l-18.392,89.671C610.626,819.232,636.488,789.774,655.972,743.47z M560.53,583.78c-47.56,0-86.115-38.543-86.115-86.097
			c0-47.557,38.555-86.1,86.115-86.1c47.539,0,86.091,38.543,86.091,86.1C646.621,545.237,608.069,583.78,560.53,583.78z"/>
		<polygon style="fill:#82BFAB;" points="549.304,831.17 561.393,886.225 572.693,831.079 591.893,737.457 561.393,612.073 
			529.169,739.388 		"/>
		<polygon style="fill:#FFFFFF;" points="499.005,327.394 494.067,332.357 627.272,332.357 622.355,327.394 		"/>
		<path style="fill:#AAD4C8;" d="M560.53,428.309c-38.252,0-69.371,31.12-69.371,69.374c0,38.252,31.12,69.372,69.371,69.372
			c38.249,0,69.37-31.12,69.37-69.372C629.9,459.429,598.78,428.309,560.53,428.309z M526.781,524.652
			c-0.995,0-2.006-0.324-2.85-0.987c-1.991-1.598-2.327-4.484-0.733-6.476l47.521-59.795c1.577-1.991,4.487-2.305,6.458-0.744
			c1.988,1.589,2.33,4.476,0.75,6.47l-47.539,59.8C529.486,524.064,528.137,524.652,526.781,524.652z M597.862,483.056
			l-47.541,59.794c-0.905,1.15-2.237,1.743-3.604,1.743c-0.995,0-2.009-0.327-2.853-0.998c-1.991-1.588-2.33-4.473-0.75-6.461
			l47.542-59.803c1.577-1.991,4.487-2.318,6.476-0.741C599.119,478.177,599.458,481.065,597.862,483.056z"/>
		<path style="fill:#82BFAB;" d="M560.53,411.583c-47.56,0-86.115,38.543-86.115,86.1c0,47.554,38.555,86.097,86.115,86.097
			c47.539,0,86.091-38.543,86.091-86.097C646.621,450.126,608.069,411.583,560.53,411.583z M560.53,567.055
			c-38.252,0-69.371-31.12-69.371-69.372c0-38.255,31.12-69.374,69.371-69.374c38.249,0,69.37,31.12,69.37,69.374
			C629.9,535.936,598.78,567.055,560.53,567.055z"/>
		<path style="fill:#FFFFFF;" d="M570.719,457.395l-47.521,59.795c-1.594,1.991-1.259,4.878,0.733,6.476
			c0.844,0.662,1.855,0.987,2.85,0.987c1.356,0,2.705-0.588,3.607-1.731l47.539-59.8c1.58-1.994,1.238-4.881-0.75-6.47
			C575.207,455.089,572.296,455.404,570.719,457.395z"/>
		<path style="fill:#FFFFFF;" d="M590.655,477.33l-47.542,59.803c-1.58,1.988-1.241,4.872,0.75,6.461
			c0.844,0.672,1.859,0.998,2.853,0.998c1.368,0,2.7-0.593,3.604-1.743l47.541-59.794c1.595-1.991,1.256-4.878-0.732-6.467
			C595.142,475.012,592.232,475.339,590.655,477.33z"/>
	</g>
</g>
</svg>
